<?xml version="1.0" encoding="UTF-8"?>
<!DOCTYPE svg  PUBLIC '-//W3C//DTD SVG 20010904//EN'  'http://www.w3.org/TR/2001/REC-SVG-20010904/DTD/svg10.dtd'>
<svg width="512pt" height="512pt" fill="#ffffff" version="1.0" viewBox="0 0 512 512" xmlns="http://www.w3.org/2000/svg">
<metadata>Created by potrace 1.16, written by Peter Selinger 2001-2019</metadata>
<g transform="translate(0 512) scale(.1 -.1)">
<path d="m2265 5109c-487-60-917-239-1310-547-104-82-350-334-431-442-289-385-454-791-510-1250-20-168-15-550 10-705 83-517 320-995 679-1371 394-412 874-667 1441-766 174-30 543-37 727-13 1188 149 2110 1084 2239 2272 16 145 8 533-14 667-184 1134-1088 2011-2216 2151-135 16-493 19-615 4zm1757-1422c67-33 121-90 154-162l24-53-2-923-3-924-23-43c-35-66-88-119-150-149l-57-28h-1405-1405l-46 21c-67 31-124 87-159 156l-30 61v916 916l24 51c43 93 114 156 206 180 35 10 357 12 1430 11l1385-2 57-28z"/>
<path d="m1440 3446c59-56 1117-885 1126-882 11 4 1087 856 1114 882 12 12-143 14-1120 14-974 0-1132-2-1120-14z"/>
<path d="m1170 2512c0-781 1-820 18-835 17-16 127-17 1374-17 1300 0 1356 1 1371 18 16 17 17 89 17 835 0 449-2 817-5 817s-298-233-657-518-663-524-675-530c-28-15-78-15-106 0-12 6-316 245-675 530s-654 518-657 518-5-368-5-818z"/>
</g>
</svg>
