<?xml version="1.0" encoding="UTF-8"?>
<!DOCTYPE svg  PUBLIC '-//W3C//DTD SVG 20010904//EN'  'http://www.w3.org/TR/2001/REC-SVG-20010904/DTD/svg10.dtd'>
<svg width="512pt" height="512pt" fill="#ffffff" version="1.0" viewBox="0 0 512 512" xmlns="http://www.w3.org/2000/svg">
<metadata>Created by potrace 1.16, written by Peter Selinger 2001-2019</metadata>
<g transform="translate(0 512) scale(.1 -.1)">
<path d="m2335 5110c-646-100-1156-605-1261-1249-20-127-20-324 0-433 64-338 293-846 639-1418 339-558 771-1140 847-1140 77 0 531 618 878 1196 366 610 581 1113 621 1454 19 162-8 389-70 575-148 445-503 802-943 950-164 55-237 66-451 70-110 2-227 0-260-5zm379-994c134-48 224-128 282-251 128-268-7-575-296-671-78-26-215-24-294 5-220 79-357 301-325 528 11 78 61 189 113 249 122 142 347 203 520 140z"/>
<path d="m736 1122c-26-16-643-790-693-871-27-42-31-117-9-159 8-15 28-40 46-57l31-30h2449 2449l31 30c18 17 38 42 46 57 22 42 18 117-9 159-12 20-167 220-344 446-240 306-331 414-356 427-31 14-101 16-655 16h-620l-61-84c-112-155-258-331-329-398-122-115-183-114-309 5-76 72-215 239-328 394l-60 82h-625c-574 0-627-1-654-17z"/>
</g>
</svg>
