<?xml version="1.0" standalone="no"?>
<!DOCTYPE svg PUBLIC "-//W3C//DTD SVG 20010904//EN"
 "http://www.w3.org/TR/2001/REC-SVG-20010904/DTD/svg10.dtd">
<svg version="1.0" xmlns="http://www.w3.org/2000/svg"
 width="256.000000pt" height="256.000000pt" viewBox="0 0 256.000000 256.000000"
 preserveAspectRatio="xMidYMid meet">
<metadata>
Created by potrace 1.16, written by Peter Selinger 2001-2019
</metadata>
<g transform="translate(0.000000,256.000000) scale(0.100000,-0.100000)"
fill="#ffffff" stroke="none">
<path d="M1228 2033 c-9 -10 -36 -68 -62 -128 -74 -177 -159 -305 -226 -340
-31 -16 -147 -37 -340 -60 -156 -19 -170 -27 -170 -92 0 -55 38 -99 155 -177
48 -33 111 -87 146 -127 l62 -70 -13 -76 c-6 -42 -27 -130 -46 -196 -39 -138
-43 -205 -16 -230 42 -38 145 -12 294 76 140 82 174 97 217 97 69 0 163 -37
311 -125 165 -97 202 -106 240 -57 21 25 22 34 16 117 -4 50 -18 152 -31 228
l-24 139 67 61 c36 34 126 120 199 192 118 115 133 133 133 163 0 74 5 72
-313 137 -119 25 -230 51 -246 59 -38 20 -88 97 -146 226 -79 172 -101 200
-155 200 -23 0 -43 -7 -52 -17z m116 -343 c49 -115 97 -176 171 -216 62 -35
185 -68 290 -80 33 -4 66 -10 73 -14 10 -5 -27 -45 -118 -131 -72 -68 -140
-128 -151 -133 -32 -15 -33 -52 -5 -224 15 -90 26 -165 24 -168 -6 -5 -162 75
-241 124 -104 64 -162 57 -376 -44 -63 -30 -116 -52 -118 -50 -2 2 1 15 6 30
6 14 17 68 26 120 8 52 20 107 25 122 6 16 9 38 5 51 -7 29 -142 191 -197 236
l-42 35 60 7 c188 20 299 65 365 149 23 28 66 103 98 167 31 64 59 114 62 110
4 -3 23 -44 43 -91z"/>
</g>
</svg>
