<?xml version="1.0" standalone="no"?>
<!DOCTYPE svg PUBLIC "-//W3C//DTD SVG 20010904//EN"
 "http://www.w3.org/TR/2001/REC-SVG-20010904/DTD/svg10.dtd">
<svg version="1.0" xmlns="http://www.w3.org/2000/svg"
 width="256.000000pt" height="256.000000pt" viewBox="0 0 256.000000 256.000000"
 preserveAspectRatio="xMidYMid meet">
<metadata>
Created by potrace 1.16, written by Peter Selinger 2001-2019
</metadata>
<g transform="translate(0.000000,256.000000) scale(0.100000,-0.100000)"
fill="#ffffff" stroke="none">
<path d="M1017 2082 c-23 -25 -22 -85 1 -105 10 -10 32 -17 49 -17 l30 0 6
-122 c6 -127 -3 -278 -22 -360 -39 -168 -197 -446 -361 -637 -79 -92 -110
-154 -110 -223 0 -45 4 -55 38 -88 61 -62 112 -72 362 -78 140 -2 297 2 446
12 126 9 273 16 327 16 54 0 107 4 117 10 33 18 52 90 49 182 -4 73 -9 93 -45
168 -39 80 -71 127 -237 343 -79 103 -121 174 -143 242 -9 28 -23 57 -30 66
-11 12 -14 65 -14 242 l0 227 29 0 c36 0 61 31 61 76 0 62 -9 64 -287 64 -229
0 -251 -1 -266 -18z m313 -371 c0 -227 2 -250 19 -272 10 -13 24 -42 31 -64
30 -94 84 -181 258 -414 113 -151 152 -221 160 -286 l5 -45 -149 0 c-82 0
-237 -5 -344 -11 -279 -15 -468 -16 -511 -1 -46 16 -43 34 15 100 96 108 189
242 278 403 136 244 149 293 155 602 l5 237 39 0 39 0 0 -249z"/>
<path d="M1113 950 c-92 -105 -172 -198 -176 -206 -13 -23 0 -62 26 -76 24
-13 201 -13 505 -2 179 7 192 12 192 66 0 23 -11 40 -52 76 -28 26 -90 99
-136 162 -111 150 -130 170 -163 170 -24 0 -54 -29 -196 -190z m269 -64 c79
-112 86 -106 -115 -106 l-138 0 88 100 c48 55 90 100 93 100 3 0 35 -43 72
-94z"/>
</g>
</svg>
