<?xml version="1.0" standalone="no"?>
<!DOCTYPE svg PUBLIC "-//W3C//DTD SVG 20010904//EN"
 "http://www.w3.org/TR/2001/REC-SVG-20010904/DTD/svg10.dtd">
<svg version="1.0" xmlns="http://www.w3.org/2000/svg"
 width="256.000000pt" height="256.000000pt" viewBox="0 0 256.000000 256.000000"
 preserveAspectRatio="xMidYMid meet">
<metadata>
Created by potrace 1.16, written by Peter Selinger 2001-2019
</metadata>
<g transform="translate(0.000000,256.000000) scale(0.100000,-0.100000)"
fill="#ffffff" stroke="none">
<path d="M1216 2000 c-309 -66 -518 -160 -647 -289 -90 -91 -114 -144 -112
-246 l1 -79 89 -85 c48 -47 179 -175 291 -285 l202 -199 0 -121 c0 -179 -20
-166 259 -166 208 0 229 2 244 18 14 15 17 44 18 163 l1 144 274 265 274 265
0 55 c0 44 -8 70 -38 131 -96 192 -277 356 -462 420 -92 32 -270 36 -394 9z
m308 -130 c120 -31 209 -82 301 -175 l80 -80 -100 -6 c-99 -5 -133 -16 -195
-59 -25 -18 -26 -18 -65 11 -124 93 -354 90 -457 -5 l-26 -25 -59 32 c-50 27
-70 32 -150 35 -74 4 -106 0 -163 -17 -40 -12 -74 -20 -76 -18 -3 2 26 33 63
68 82 77 203 142 359 192 218 71 348 83 488 47z m-97 -392 c26 -12 55 -34 65
-48 17 -25 17 -28 -50 -220 -38 -107 -78 -214 -90 -237 l-22 -43 -60 0 -59 0
-5 43 c-3 23 -10 95 -16 160 -6 65 -17 150 -25 188 -8 39 -15 81 -15 94 0 85
161 122 277 63z m466 -30 l60 -30 -154 -155 c-85 -85 -189 -186 -231 -224
l-77 -70 28 73 c15 40 50 138 76 218 27 80 58 156 69 169 12 13 39 32 61 42
49 24 87 18 168 -23z m-968 13 c69 -32 93 -67 114 -167 19 -85 44 -314 36
-323 -2 -2 -106 97 -230 220 l-226 223 28 15 c100 52 208 65 278 32z m515
-731 l0 -80 -135 0 -135 0 0 80 0 80 135 0 135 0 0 -80z"/>
</g>
</svg>
