<?xml version="1.0" encoding="UTF-8"?>
<!DOCTYPE svg  PUBLIC '-//W3C//DTD SVG 20010904//EN'  'http://www.w3.org/TR/2001/REC-SVG-20010904/DTD/svg10.dtd'>
<svg width="128pt" height="128pt" fill="#ffffff" version="1.0" viewBox="0 0 128 128" xmlns="http://www.w3.org/2000/svg">
<metadata>Created by potrace 1.16, written by Peter Selinger 2001-2019</metadata>
<g transform="translate(0 128) scale(.1 -.1)">
<path d="m835 1026c-63-28-115-110-115-181 0-70 52-153 113-179l27-12-54-17c-35-11-73-34-105-63-73-66-77-77-46-119 15-18 35-55 45-82l18-48 266-3 266-2v34c0 54-36 139-81 189-38 43-143 106-178 107-9 1 1 10 21 20 139 74 137 279-3 350-45 23-129 26-174 6z"/>
<path d="m274 941c-125-58-147-235-42-325 23-20 49-36 57-36 9 0-10-11-42-24-102-42-162-101-198-196-10-27-19-66-19-85v-35h334 334l-5 42c-11 94-82 204-158 246-16 9-50 25-75 34s-37 17-28 17c27 1 89 62 109 106 38 82 12 179-64 239-49 39-140 47-203 17z"/>
</g>
</svg>
