<?xml version="1.0" encoding="UTF-8"?>
<!DOCTYPE svg  PUBLIC '-//W3C//DTD SVG 20010904//EN'  'http://www.w3.org/TR/2001/REC-SVG-20010904/DTD/svg10.dtd'>
<svg width="512pt" height="512pt" fill="#ffffff" version="1.0" viewBox="0 0 512 512" xmlns="http://www.w3.org/2000/svg">
<metadata>Created by potrace 1.16, written by Peter Selinger 2001-2019</metadata>
<g transform="translate(0 512) scale(.1 -.1)">
<path d="m2415 4689c-111-15-211-46-330-104-284-139-478-378-567-703-18-65-22-105-22-252 0-158 3-184 27-275 107-398 433-705 827-779l65-13-160-6c-862-34-1607-670-1791-1531-34-160-52-398-34-461 17-60 70-116 126-133 60-18 3948-18 4008 0 55 17 109 73 126 131 26 95-13 416-76 624-182 600-648 1080-1242 1276-187 62-324 87-512 94l-155 6 65 13c403 82 719 380 827 779 24 91 27 117 27 275 0 147-4 187-22 252-89 325-282 564-567 703-201 99-399 132-620 104z"/>
</g>
</svg>
