<?xml version="1.0" encoding="UTF-8"?>
<!DOCTYPE svg  PUBLIC '-//W3C//DTD SVG 20010904//EN'  'http://www.w3.org/TR/2001/REC-SVG-20010904/DTD/svg10.dtd'>
<svg width="512pt" height="512pt" fill="#ffffff" version="1.0" viewBox="0 0 512 512" xmlns="http://www.w3.org/2000/svg">
<metadata>Created by potrace 1.16, written by Peter Selinger 2001-2019</metadata>
<g transform="translate(0 512) scale(.1 -.1)">
<path d="m1152 4939c-71-28-144-101-171-174-17-45-21-79-21-170v-114l-515-6-60-29c-77-38-153-114-191-191l-29-60v-1715-1715l29-60c38-77 114-153 191-191l60-29 1197-3c1189-2 1198-2 1218 18 24 24 27 87 6 116-14 19-41 19-1183 24-1097 5-1170 6-1208 23-54 24-103 73-129 127l-21 45-3 1263-2 1262h2240 2240v-700c0-687 0-700 20-720 27-27 93-27 120 0 20 20 20 29 18 1138l-3 1117-29 60c-38 77-114 153-191 191l-60 29-257 3-258 3v114c0 144-20 204-90 275-160 159-452 102-529-105-17-45-21-79-21-170v-115h-320-320v115c0 91-4 125-21 170-77 207-369 264-529 105-71-71-90-131-90-275v-115h-320-320v115c0 144-19 204-90 275-89 88-235 116-358 69zm208-172c19-12 43-38 54-57 20-33 21-51 21-310s-1-277-21-310c-63-107-205-107-268 0-20 33-21 51-21 310s1 277 21 310c30 51 78 80 134 80 32 0 58-7 80-23zm1280 0c19-12 43-38 54-57 20-33 21-51 21-310s-1-277-21-310c-63-107-205-107-268 0-20 33-21 51-21 310s1 277 21 310c30 51 78 80 134 80 32 0 58-7 80-23zm1280 0c19-12 43-38 54-57 20-33 21-51 21-310s-1-277-21-310c-63-107-205-107-268 0-20 33-21 51-21 310s1 277 21 310c30 51 78 80 134 80 32 0 58-7 80-23zm-2960-562c0-144 19-204 90-275 160-159 452-102 529 105 17 45 21 79 21 170v115h320 320v-115c0-91 4-125 21-170 77-207 369-264 529-105 71 71 90 131 90 275v115h320 320v-115c0-144 19-204 90-275 160-159 452-102 529 105 17 45 21 79 21 171v116l223-4c248-4 279-11 344-79 65-69 67-82 71-416l4-303h-2242-2242l4 303c4 334 6 348 71 415 68 71 107 79 370 81l197 1v-115z"/>
<path d="m872 2940c-65-40-72-64-72-260s7-220 72-260c30-18 51-20 248-20s218 2 248 20c65 40 72 64 72 260s-7 220-72 260c-30 18-51 20-248 20s-218-2-248-20zm408-260v-120h-160-160v120 120h160 160v-120z"/>
<path d="m1832 2940c-65-40-72-64-72-260s7-220 72-260c30-18 51-20 248-20s218 2 248 20c65 40 72 64 72 260s-7 220-72 260c-30 18-51 20-248 20s-218-2-248-20zm408-260v-120h-160-160v120 120h160 160v-120z"/>
<path d="m2792 2940c-65-40-72-64-72-260s7-220 72-260c30-18 51-20 248-20s218 2 248 20c65 40 72 64 72 260s-7 220-72 260c-30 18-51 20-248 20s-218-2-248-20zm408-260v-120h-160-160v120 120h160 160v-120z"/>
<path d="m3752 2940c-65-40-72-64-72-260s7-220 72-260c30-18 51-20 248-20s218 2 248 20c65 40 72 64 72 260s-7 220-72 260c-30 18-51 20-248 20s-218-2-248-20zm408-260v-120h-160-160v120 120h160 160v-120z"/>
<path d="m872 2220c-65-40-72-64-72-260s7-220 72-260c30-18 51-20 248-20s218 2 248 20c65 40 72 64 72 260s-7 220-72 260c-30 18-51 20-248 20s-218-2-248-20zm408-260v-120h-160-160v120 120h160 160v-120z"/>
<path d="m1832 2220c-65-40-72-64-72-260s7-220 72-260c30-18 51-20 248-20s218 2 248 20c65 40 72 64 72 260s-7 220-72 260c-30 18-51 20-248 20s-218-2-248-20zm408-260v-120h-160-160v120 120h160 160v-120z"/>
<path d="m2792 2220c-65-40-72-64-72-260s7-220 72-260c45-27 121-27 148 0 43 43 15 140-40 140-19 0-20 7-20 120v120h180c167 0 181 1 200 20 13 13 20 33 20 60s-7 47-20 60c-19 19-33 20-227 20-190 0-211-2-241-20z"/>
<path d="m3700 2221c-205-45-363-132-516-285-156-156-242-314-286-526-29-138-21-367 16-493 55-186 143-332 278-463 132-129 265-206 445-260 126-37 355-45 493-16 212 44 370 130 526 286s242 314 286 526c29 138 21 367-16 493-54 180-131 313-260 445-131 135-277 222-463 278-121 36-373 44-503 15zm440-176c99-25 256-105 335-172 392-330 424-910 71-1281-258-271-692-342-1024-167-229 121-393 330-452 575-27 116-27 284 0 400 43 178 155 357 298 476 76 63 236 145 332 170 131 34 306 34 440-1z"/>
<path d="m4078 1243-318-317-148 147c-142 140-150 147-189 147-53 0-83-31-83-85 0-38 8-48 188-227 187-188 188-188 232-188h45l357 358c353 352 358 358 358 398 0 54-31 84-85 84-38 0-49-9-357-317z"/>
<path d="m872 1500c-65-40-72-64-72-260s7-220 72-260c30-18 51-20 248-20s218 2 248 20c65 40 72 64 72 260s-7 220-72 260c-30 18-51 20-248 20s-218-2-248-20zm408-260v-120h-160-160v120 120h160 160v-120z"/>
<path d="m1832 1500c-65-40-72-64-72-260s7-220 72-260c30-18 51-20 248-20s218 2 248 20c65 40 72 64 72 260s-7 220-72 260c-30 18-51 20-248 20s-218-2-248-20zm408-260v-120h-160-160v120 120h160 160v-120z"/>
</g>
</svg>
