<?xml version="1.0" encoding="UTF-8"?>
<!DOCTYPE svg  PUBLIC '-//W3C//DTD SVG 20010904//EN'  'http://www.w3.org/TR/2001/REC-SVG-20010904/DTD/svg10.dtd'>
<svg width="256pt" height="256pt" fill="#ffffff" version="1.0" viewBox="0 0 256 256" xmlns="http://www.w3.org/2000/svg">
<g transform="translate(0 256) scale(.1 -.1)">
<path d="m1248 2416c-15-8-302-216-638-461l-610-447v-38c0-55 25-77 84-70 10 1 280 193 600 428 319 234 588 426 596 426s277-192 596-426c320-235 590-427 600-428 59-7 84 15 84 70v38l-609 446c-545 399-653 476-671 476-3 0-17-7-32-14z"/>
<path d="m297 1382c-15-17-17-74-17-614 0-592 0-595 21-614 20-18 43-19 367-22 241-2 354 1 373 9 16 6 32 23 38 41 7 20 11 158 11 376v345l25 43c74 125 256 125 330 0l25-43v-345c0-218 4-356 11-376 6-18 22-35 38-41 19-8 132-11 373-9 324 3 347 4 367 22 21 19 21 22 21 617v598l-22 15c-31 22-74 20-98-4-20-20-20-33-20-560v-540h-259-260l-3 323c-5 381-6 386-102 483-72 72-135 98-236 98s-164-26-236-98c-96-97-97-102-102-484l-3-322h-260-259v540c0 527 0 540-20 560-26 26-81 26-103 2z"/>
</g>
</svg>
