<?xml version="1.0" encoding="UTF-8"?>
<!DOCTYPE svg  PUBLIC '-//W3C//DTD SVG 20010904//EN'  'http://www.w3.org/TR/2001/REC-SVG-20010904/DTD/svg10.dtd'>
<svg width="512pt" height="512pt" fill="#ffffff" version="1.0" viewBox="0 0 512 512" xmlns="http://www.w3.org/2000/svg">
<metadata>Created by potrace 1.16, written by Peter Selinger 2001-2019</metadata>
<g transform="translate(0 512) scale(.1 -.1)">
<path d="m2886 4550c-318-137-587-257-598-267-71-64-63-207 14-257 13-8 281-125 596-260 485-208 581-246 622-246s121 31 502 194l453 195 5-468c5-428 6-469 23-494 29-45 75-67 137-67 65 0 110 24 140 72 19 32 20 52 20 648 0 592-1 616-20 647-10 18-29 39-42 47s-281 125-596 260c-510 219-579 246-625 245-45 0-131-34-631-249z"/>
<path d="m2720 3491c0-178 1-190 23-222 18-29 77-62 372-211 327-165 354-177 405-177s78 12 405 177c295 149 354 182 373 211 21 32 22 44 22 222v189l-22-9c-13-5-171-73-353-152l-330-143h-95-95l-350 152c-192 84-351 152-352 152-2 0-3-85-3-189z"/>
<path d="m1195 2862c-644-387-835-505-852-531-17-25-23-48-23-90 0-66 23-111 72-141 33-20 54-20 1686-20 1203 0 1659 3 1675 11 100 52 127 177 54 255-18 19-385 245-850 524l-819 490h-56-57l-830-498z"/>
<path d="m640 1520v-400h160 160v400 400h-160-160v-400z"/>
<path d="m1280 1520v-400h160 160v400 400h-160-160v-400z"/>
<path d="m1920 1520v-400h160 160v400 400h-160-160v-400z"/>
<path d="m2560 1520v-400h160 160v400 400h-160-160v-400z"/>
<path d="m3200 1520v-400h160 160v400 400h-160-160v-400z"/>
<path d="m549 938c-27-18-54-62-131-213-87-171-97-196-98-245 0-65 23-110 72-140 33-20 54-20 1689-20h1656l33 22c57 39 75 72 74 136-1 51-11 76-100 247-78 150-106 195-133 212l-34 23h-1497-1497l-34-22z"/>
</g>
</svg>
