<?xml version="1.0" encoding="UTF-8"?>
<!DOCTYPE svg  PUBLIC '-//W3C//DTD SVG 20010904//EN'  'http://www.w3.org/TR/2001/REC-SVG-20010904/DTD/svg10.dtd'>
<svg width="512pt" height="512pt" fill="#ffffff" version="1.0" viewBox="0 0 512 512" xmlns="http://www.w3.org/2000/svg">
<metadata>Created by potrace 1.16, written by Peter Selinger 2001-2019</metadata>
<g transform="translate(0 512) scale(.1 -.1)">
<path d="m3362 5113c-29-12-37-51-42-216l-5-168-73-31-74-31-111 111c-122 121-151 139-201 122-38-12-410-383-421-418-14-46 6-77 122-194l116-116-31-74-31-73-168-5c-105-3-176-10-189-17-39-22-44-63-44-333s5-311 44-333c13-7 83-14 189-17l168-5 62-146-116-117c-120-122-138-152-118-201 17-40 390-408 423-416 45-11 69 4 190 123l117 115 146-62 5-168c5-184 11-204 61-222 43-15 535-15 578 0 50 18 56 38 61 222l5 168 73 31 74 31 111-111c126-124 145-136 190-126 42 9 411 372 427 419 17 51-1 80-122 202l-111 111 31 74 31 73 168 5c169 5 204 12 217 46 3 8 6 147 6 308v293l-26 24c-24 23-33 24-196 29l-171 5-30 73-29 74 114 116c114 116 136 150 120 190-11 30-388 411-418 422-46 18-76 0-196-118l-117-115-73 30-73 29-5 171c-5 164-6 173-29 197l-24 26-296-1c-163 0-302-3-309-6zm478-332c0-189-1-188 113-225 43-15 109-42 147-61s82-35 96-35c21 0 53 25 141 112l114 112 116-117 117-116-112-114c-87-88-112-120-112-141 0-14 16-58 35-96s46-104 61-147c37-114 36-113 225-113h159v-170-170h-159c-189 0-188 1-225-113-15-43-42-109-61-147s-35-82-35-96c0-21 26-53 115-143l115-117-118-117-117-117-116 115c-90 89-122 115-143 115-14 0-61-17-104-39-42-21-108-48-147-61-105-33-105-33-105-226v-164h-170-170v165c0 193 2 190-106 225-38 13-104 40-146 61-43 22-90 39-104 39-21 0-53-26-143-115l-116-115-117 117-118 117 115 117c89 90 115 122 115 143 0 14-17 61-39 104-21 42-48 108-61 146-35 108-32 106-225 106h-165v170 170h164c193 0 193 0 226 105 13 39 40 105 61 147 22 43 39 90 39 104 0 21-26 53-115 143l-115 116 117 117 117 118 117-115c90-89 122-115 143-115 14 0 58 16 96 35s104 46 147 61c114 37 113 36 113 225v159h170 170v-159z"/>
<path d="m3504 4426c-359-82-604-389-604-756 0-434 336-770 770-770 372 0 679 249 757 613 18 89 13 274-11 362-24 87-88 211-146 282-96 118-249 218-395 259-82 22-291 28-371 10zm301-181c323-82 521-412 434-725-46-167-160-307-311-378-96-46-161-62-258-62s-162 16-260 62c-200 96-330 304-330 528 0 97 16 162 62 259 47 99 148 207 238 256 129 69 296 93 425 60z"/>
<path d="m3615 4009c-140-20-244-115-281-258-63-250 167-480 416-417 82 21 150 65 195 126 50 68 67 122 67 213 0 65-5 87-30 140-71 147-205 219-367 196zm146-204c44-33 62-67 67-120 15-176-206-248-299-98-47 76-17 186 62 227 44 22 135 17 170-9z"/>
<path d="m350 4179c-128-21-253-116-313-238l-32-66v-1785-1785l29-60c41-83 122-165 204-206l67-34 1990-3c1095-1 2e3 0 2012 3 55 13 53-30 53 1185v1120h-90-90v-1065-1065h-1907c-1824 0-1910 1-1948 19-46 21-111 88-131 137-41 97 0 231 90 291 65 45 103 53 238 53h116l52 62v1289 1289h680 680v90 90h-680-680v305c0 339-2 353-61 374-37 13-199 13-279 0zm160-1744v-1575h-60c-77 0-153-17-212-46-26-13-50-24-53-24s-5 681-5 1513c0 1443 1 1514 19 1552 44 97 136 151 264 154l47 1v-1575z"/>
<path d="m904 3070c-54-22-54-25-54-427v-372l48-56h550 550l26 24c26 24 26 26 26 173v148h170 170v90 90h-170-170v143c0 141 0 144-26 168l-26 24-536 2c-295 1-547-2-558-7zm966-425v-255h-420-420v255 255h420 420v-255z"/>
<path d="m3240 1795v-255h-230-231l-24-25c-24-23-25-28-25-170v-145h-340-340v145c0 142-1 147-25 170l-24 25h-551-551l-24-25-25-24v-381-381l25-24 24-25h551 551l24 25c24 23 25 28 25 170v145h340 340v-145c0-142 1-147 25-170l24-25h545c299 0 552 3 561 6 42 16 45 45 45 423 0 243-4 368-11 384-19 42-46 47-279 47h-220v255 255h-90-90v-255zm-1370-685v-250h-420-420v250 250h420 420v-250zm1880 0v-250h-420-420v250 250h420 420v-250z"/>
</g>
</svg>
