<?xml version="1.0" encoding="UTF-8"?>
<!DOCTYPE svg  PUBLIC '-//W3C//DTD SVG 20010904//EN'  'http://www.w3.org/TR/2001/REC-SVG-20010904/DTD/svg10.dtd'>
<svg width="512pt" height="512pt" fill="#ffffff" version="1.0" viewBox="0 0 512 512" xmlns="http://www.w3.org/2000/svg">
<metadata>Created by potrace 1.16, written by Peter Selinger 2001-2019</metadata>
<g transform="translate(0 512) scale(.1 -.1)">
<path d="m2030 4343c-964-258-1291-350-1307-366-18-16-23-32-23-68 0-37-4-49-17-53-10-3-60-17-112-30-132-35-133-37-130-166l3-105-80-21c-43-12-117-32-163-45-46-12-92-30-103-41-31-31-23-83 26-162 128-207 232-478 285-742 36-177 50-282 91-674 51-492 100-734 196-961 119-283 241-409 445-461 138-34 178-28 729 120 267 72 854 230 1305 351s839 227 862 235c163 58 297 213 339 392 28 119 5 382-49 557l-15 47h174c196 0 221 6 271 63 68 77 59 137-47 320l-81 141 32 63c96 189-24 392-231 393h-65l-64 113c-113 196-128 216-174 237-57 26-114 25-167-3-35-18-53-40-97-112-29-50-57-91-61-93-12-4-138 264-206 437-116 291-166 519-171 776-4 158-4 160-30 182-14 13-38 23-53 22-15 0-605-156-1312-346zm1229 10c29-327 114-599 333-1061l101-213-59-86c-32-48-91-121-131-163-62-66-94-89-228-166-119-67-169-103-209-145l-52-56-549-147c-303-80-563-152-578-158-79-31-55-158 29-158 24 0 816 205 1025 266 13 4 17-7 22-58 5-42 19-87 41-133 19-38 34-70 33-71s-216-59-477-128c-629-168-578-152-595-186-8-16-15-39-15-50 0-26 52-80 77-80 10 0 285 72 611 159 496 133 599 158 625 150 61-17 162-10 234 16 37 13 68 23 69 22 0-1 36-64 80-140 119-208 160-242 294-242 61 1 84 6 127 28 58 30 93 69 93 104 0 13-52 115-116 226s-118 205-120 209c-4 6 90 30 172 43l41 6 22-73c66-217 77-444 28-551-35-77-107-151-181-187-39-19-441-131-1131-315-588-157-1078-288-1087-291-15-5-14 4 9 63 52 136 41 382-28 632-54 194-149 409-390 886-323 639-413 858-473 1141-26 123-53 390-41 402 5 6 2344 638 2371 641 7 1 15-50 23-136zm-2555-740c21-201 107-504 217-763 29-69 155-328 281-576 254-503 317-642 376-824 61-191 76-275 77-430 0-133-1-137-33-202-70-142-225-230-383-215-54 5-179 52-179 67 0 4 17 11 37 15 85 16 186 87 244 172 66 96 87 215 69 393-29 295-107 526-400 1190-257 583-338 809-385 1084-22 128-21 134 18 145 54 15 54 15 61-56zm-134-554c57-167 128-339 297-724 296-670 373-908 376-1175 2-98-1-122-19-161-41-88-124-148-216-157-80-8-91-1-131 85-104 221-154 446-202 913-60 581-84 730-156 979-40 138-98 282-165 410-30 57-52 106-50 108s41 14 87 26l84 22 28-105c15-58 45-157 67-221zm3775-239 286-495-42-3c-23-2-45 0-50 5-4 4-127 216-273 469l-267 462 22 37c12 20 25 33 30 28 4-4 137-231 294-503zm-223-118 217-377-52-2c-103-5-254-25-342-44-49-12-96-21-103-22s-66 90-131 203l-119 204 69 81c38 44 106 137 151 207 46 70 85 127 88 127s103-170 222-377zm-565-320c56-98 105-185 108-193 3-10-31-34-117-83-98-56-132-71-175-74-138-12-256 109-240 246 9 83 49 129 182 209 66 40 125 72 130 72 6 0 56-80 112-177zm302-525c50-86 91-159 91-162 0-12-40-3-59 13-12 9-57 78-100 152l-79 135 21 17c12 9 25 14 29 10 3-4 47-78 97-165z"/>
<path d="m2202 3931c-367-99-593-165-610-178-41-30-64-78-65-131 0-48 251-999 277-1051 30-58 106-97 168-87 89 14 1190 317 1212 333 38 28 66 85 66 134 0 60-262 1033-287 1067-34 46-69 65-125 68-43 3-162-26-636-155zm681-228c31-119 56-217 54-219s-43 28-92 67c-113 89-120 92-161 84-37-6-43-15-247-335l-57-90-120 80c-98 65-126 80-158 80-45 0-49-4-177-169l-88-114-70 262c-39 144-68 263-65 266 3 4 1098 301 1118 304 3 1 31-97 63-216zm-6-398 141-110 32-118c17-66 30-120 28-121-10-9-1123-302-1126-297-1 4-15 54-30 112l-29 105 106 137c59 75 111 141 118 148 8 8 32-3 93-44 45-30 78-57 73-60-21-13-55-99-49-123 16-63 91-85 140-41 13 12 76 103 138 202 195 307 209 327 217 323 4-2 71-52 148-113z"/>
<path d="m2261 3566c-87-48-50-186 49-186 51 0 100 49 100 99 0 75-83 124-149 87z"/>
<path d="m2875 1495c-396-107-730-197-742-200-91-22-76-165 16-165 17 0 122 24 233 54 112 30 448 120 748 201 591 158 580 153 580 224 0 49-33 81-81 80-19 0-358-88-754-194z"/>
<path d="m4518 3480c-20-15-31-41-48-109-20-82-20-91-6-119 17-33 33-42 80-42s71 32 95 127c22 87 18 123-17 149-25 20-76 17-104-6z"/>
<path d="m4815 3190c-80-45-95-61-95-107 0-44 38-83 80-83 37 0 161 69 185 102 22 33 19 75-10 103-35 36-77 32-160-15z"/>
<path d="m4775 2805c-32-31-32-75-2-110 15-18 44-32 97-45 95-25 111-25 144 1 21 16 26 29 26 63 0 55-18 71-106 96-93 27-129 26-159-5z"/>
</g>
</svg>
